HIERARCHY
ROOT Hips
{
 OFFSET 0.000000 0.000000 0.000000
 CHANNELS 6 Xposition Yposition Zposition Yrotation Xrotation Zrotation
 JOINT Chest
 {
  OFFSET 0.000000 9.588913 -0.003946
  CHANNELS 3 Yrotation Xrotation Zrotation
  JOINT Chest2
  {
   OFFSET 0.000000 9.541882 0.008053
   CHANNELS 3 Yrotation Xrotation Zrotation
   JOINT Chest3
   {
    OFFSET 0.000000 9.501360 0.000000
    CHANNELS 3 Yrotation Xrotation Zrotation
    JOINT Chest4
    {
     OFFSET 0.000000 9.491660 0.000000
     CHANNELS 3 Yrotation Xrotation Zrotation
     JOINT Neck
     {
      OFFSET 0.000000 14.331917 0.000000
      CHANNELS 3 Yrotation Xrotation Zrotation
      JOINT Head
      {
       OFFSET 0.000000 8.884799 0.017034
       CHANNELS 3 Yrotation Xrotation Zrotation
       End Site
       {
        OFFSET 0.000000 16.896195 0.008993
       }
      }
     }
     JOINT RightCollar
     {
      OFFSET -2.923010 9.499495 0.000000
      CHANNELS 3 Yrotation Xrotation Zrotation
      JOINT RightShoulder
      {
       OFFSET -13.795216 0.000000 0.000000
       CHANNELS 3 Yrotation Xrotation Zrotation
       JOINT RightElbow
       {
        OFFSET -30.272209 0.000000 0.000000
        CHANNELS 3 Yrotation Xrotation Zrotation
        JOINT RightWrist
        {
         OFFSET -24.478199 0.000000 0.000000
         CHANNELS 3 Yrotation Xrotation Zrotation
         End Site
         {
          OFFSET -18.090752 0.000000 0.000000
         }
        }
       }
      }
     }
     JOINT LeftCollar
     {
      OFFSET 2.923010 9.499495 0.000000
      CHANNELS 3 Yrotation Xrotation Zrotation
      JOINT LeftShoulder
      {
       OFFSET 13.795216 0.000000 0.000000
       CHANNELS 3 Yrotation Xrotation Zrotation
       JOINT LeftElbow
       {
        OFFSET 30.272209 0.000000 0.000000
        CHANNELS 3 Yrotation Xrotation Zrotation
        JOINT LeftWrist
        {
         OFFSET 24.478199 0.000000 0.000000
         CHANNELS 3 Yrotation Xrotation Zrotation
         End Site
         {
          OFFSET 18.090752 0.000000 0.000000
         }
        }
       }
      }
     }
    }
   }
  }
 }
 JOINT RightHip
 {
  OFFSET -7.826875 0.019532 0.001973
  CHANNELS 3 Yrotation Xrotation Zrotation
  JOINT RightKnee
  {
   OFFSET 0.000000 -40.546152 -0.001885
   CHANNELS 3 Yrotation Xrotation Zrotation
   JOINT RightAnkle
   {
    OFFSET 0.000000 -39.417092 -0.003189
    CHANNELS 3 Yrotation Xrotation Zrotation
    JOINT RightToe
    {
     OFFSET 0.000000 -7.579396 17.243563
     CHANNELS 3 Yrotation Xrotation Zrotation
     End Site
     {
      OFFSET 0.000000 -1.500329 6.694466
     }
    }
   }
  }
 }
 JOINT LeftHip
 {
  OFFSET 7.826875 0.019532 0.001973
  CHANNELS 3 Yrotation Xrotation Zrotation
  JOINT LeftKnee
  {
   OFFSET 0.000000 -40.546152 -0.001885
   CHANNELS 3 Yrotation Xrotation Zrotation
   JOINT LeftAnkle
   {
    OFFSET 0.000000 -39.417092 -0.003189
    CHANNELS 3 Yrotation Xrotation Zrotation
    JOINT LeftToe
    {
     OFFSET 0.000000 -7.579396 17.243563
     CHANNELS 3 Yrotation Xrotation Zrotation
     End Site
     {
      OFFSET 0.000000 -1.500329 6.694466
     }
    }
   }
  }
 }
}
MOTION
Frames: 13
Frame Time: 0.008333
-12.432748 49.511920 -20.983155 55.188385 -33.915420 -6.152505 0.874978 13.198371 2.543394 0.419999 7.545512 1.140041 0.549911 9.430448 1.436927 0.419999 7.545513 1.140040 -0.149462 18.921081 0.346096 -0.236527 -5.766134 0.399521 -2.996013 -4.841251 -7.882505 1.631482 -12.266869 70.679498 88.007863 -15.657806 33.887365 11.704423 -2.429071 -5.788995 -6.929745 -6.643748 4.834187 2.189552 -17.260516 -77.329792 -70.091873 -20.172436 -51.634301 -12.169786 -4.515769 13.343651 -1.787281 -49.598177 -8.438079 -156.707669 74.870171 -152.095914 -6.610521 -17.543099 4.406133 -0.203041 0.537321 -0.095164 7.484508 -54.686952 -0.890363 139.357578 69.412129 153.331146 1.024959 -17.292213 -3.868102 -0.078145 -0.578585 -0.041173
-12.435507 49.511089 -20.985343 55.166870 -33.923444 -6.125270 0.864214 13.218656 2.553937 0.416126 7.558265 1.145893 0.545227 9.446393 1.444203 0.416126 7.558266 1.145892 -0.139903 18.904814 0.315030 -0.219353 -5.784479 0.364505 -3.218823 -4.473237 -7.838520 1.612206 -11.412650 70.788454 88.658050 -14.450841 33.701699 11.509599 -1.764985 -5.517826 -6.722921 -6.442119 4.822067 2.002981 -16.387207 -77.044385 -70.393521 -19.870247 -51.454562 -12.065139 -4.161733 13.159693 -1.777590 -49.600351 -8.450952 -156.734589 74.874557 -152.130812 -6.615028 -17.540655 4.395493 -0.199820 0.538625 -0.094294 7.496554 -54.683248 -0.900676 139.370395 69.414079 153.333340 1.030396 -17.273242 -3.869146 -0.079851 -0.588188 -0.043235
-12.439903 49.510083 -20.986848 55.141457 -33.929685 -6.101157 0.853422 13.236103 2.568475 0.410338 7.570600 1.151426 0.538136 9.461823 1.451039 0.410339 7.570601 1.151426 -0.125580 18.890264 0.282197 -0.196750 -5.800907 0.326548 -3.437613 -4.110576 -7.799664 1.611321 -10.589030 70.925688 89.377493 -12.998881 33.463942 11.165713 -1.365854 -5.516980 -6.531711 -6.225643 4.802798 1.844780 -15.547477 -76.776692 -70.597779 -19.510459 -51.252660 -11.985688 -3.869571 13.040679 -1.769241 -49.603961 -8.454359 -156.753414 74.881601 -152.154772 -6.623009 -17.536495 4.383820 -0.193220 0.541366 -0.092907 7.505876 -54.681569 -0.899856 139.381248 69.417724 153.335884 1.031150 -17.257685 -3.873959 -0.078397 -0.593805 -0.041853
-12.444966 49.509427 -20.987676 55.113899 -33.939597 -6.077783 0.840767 13.254091 2.583429 0.402561 7.582656 1.156992 0.528553 9.476910 1.457872 0.402561 7.582657 1.156991 -0.106638 18.876578 0.246321 -0.168583 -5.816368 0.284336 -3.649072 -3.768009 -7.766555 1.646425 -9.773220 71.093684 90.007230 -11.369581 33.100727 10.850795 -1.124859 -5.622485 -6.350266 -5.977024 4.777571 1.723875 -14.768113 -76.531906 -70.709192 -19.078872 -51.030136 -11.921474 -3.637214 12.984967 -1.760968 -49.601844 -8.453549 -156.758663 74.890266 -152.165926 -6.627267 -17.534592 4.373848 -0.189932 0.547068 -0.092682 7.517165 -54.674052 -0.894118 139.380917 69.422099 153.329790 1.026003 -17.247960 -3.881040 -0.074570 -0.594367 -0.038320
-12.449789 49.509347 -20.988262 55.088578 -33.955687 -6.052782 0.823233 13.274166 2.594960 0.393425 7.595253 1.162437 0.517268 9.492679 1.464527 0.393426 7.595254 1.162436 -0.084546 18.861687 0.207391 -0.136399 -5.833159 0.238189 -3.851508 -3.454162 -7.742080 1.714615 -8.953285 71.299036 90.436435 -9.693035 32.628495 10.568210 -0.935512 -5.787783 -6.174033 -5.705833 4.741374 1.631047 -14.045564 -76.300224 -70.743933 -18.564345 -50.781526 -11.881442 -3.434254 13.007254 -1.752599 -49.592025 -8.455053 -156.761280 74.899078 -152.178734 -6.627557 -17.535347 4.368045 -0.192536 0.553868 -0.094463 7.533614 -54.657321 -0.892948 139.365520 69.426955 153.310665 1.015575 -17.241556 -3.887620 -0.068758 -0.591929 -0.034781
-12.454469 49.509744 -20.988608 55.061938 -33.977112 -6.025267 0.806348 13.297765 2.605364 0.384290 7.608632 1.167562 0.505978 9.509425 1.470782 0.384290 7.608632 1.167561 -0.061928 18.844138 0.167020 -0.103337 -5.852881 0.190407 -4.049964 -3.174597 -7.726795 1.786657 -8.138146 71.549529 90.666612 -8.051050 32.150108 10.285079 -0.789447 -6.041380 -6.013041 -5.430435 4.692412 1.555717 -13.361564 -76.069181 -70.744848 -17.970343 -50.481120 -11.870959 -3.219003 13.125998 -1.742721 -49.577703 -8.456338 -156.769150 74.908032 -152.200884 -6.628212 -17.535071 4.365691 -0.197135 0.559264 -0.097394 7.555081 -54.633272 -0.894889 139.345130 69.431323 153.286751 1.005696 -17.238649 -3.892073 -0.063444 -0.588060 -0.033063
-12.459480 49.510350 -20.988629 55.027617 -34.001430 -5.994644 0.795394 13.323572 2.616704 0.375404 7.622418 1.172315 0.494996 9.526681 1.476577 0.375405 7.622419 1.172314 -0.038791 18.824913 0.126288 -0.069649 -5.874431 0.142133 -4.240354 -2.920585 -7.716213 1.845395 -7.353075 71.842266 90.660177 -6.510383 31.717460 10.047351 -0.701436 -6.342436 -5.868616 -5.161141 4.633764 1.472563 -12.697114 -75.835826 -70.761390 -17.320104 -50.093795 -11.874726 -2.949769 13.362475 -1.729967 -49.563253 -8.453364 -156.774543 74.916706 -152.223460 -6.626461 -17.530817 4.362463 -0.200316 0.561863 -0.099437 7.577904 -54.605365 -0.892343 139.335285 69.435629 153.270862 1.001995 -17.240656 -3.895749 -0.060228 -0.582889 -0.032987
-12.464812 49.511004 -20.988505 54.990289 -34.026849 -5.963499 0.785932 13.348241 2.628164 0.366057 7.636435 1.176611 0.483427 9.544228 1.481789 0.366058 7.636436 1.176610 -0.013338 18.806457 0.086106 -0.033647 -5.895080 0.093923 -4.417273 -2.675710 -7.705195 1.909518 -6.615235 72.163773 90.342315 -5.166306 31.299771 9.924118 -0.660772 -6.590629 -5.728117 -4.903462 4.572880 1.345882 -12.031799 -75.613282 -70.809905 -16.628010 -49.600091 -11.887072 -2.598864 13.736362 -1.718110 -49.549617 -8.446265 -156.765437 74.923344 -152.232823 -6.622958 -17.523385 4.357123 -0.201097 0.561843 -0.099796 7.594984 -54.576862 -0.883578 139.342880 69.441084 153.268929 1.004613 -17.243112 -3.899940 -0.058762 -0.579137 -0.033573
-12.470045 49.511558 -20.988858 54.958290 -34.051706 -5.932750 0.770732 13.370288 2.635632 0.356047 7.650197 1.180004 0.471009 9.561458 1.485854 0.356048 7.650198 1.180003 0.015326 18.790940 0.048554 0.005141 -5.912412 0.047768 -4.578084 -2.436005 -7.685675 1.990885 -5.920390 72.501572 89.727969 -4.105221 30.881872 9.877324 -0.652106 -6.762146 -5.580653 -4.663700 4.522319 1.159269 -11.348684 -75.423130 -70.867298 -15.898676 -49.013181 -11.901556 -2.170951 14.250016 -1.707434 -49.535985 -8.442915 -156.743790 74.927428 -152.229121 -6.620046 -17.517200 4.352305 -0.201742 0.561852 -0.099920 7.608650 -54.549863 -0.878445 139.359508 69.448466 153.274040 1.010888 -17.240855 -3.903402 -0.059020 -0.578892 -0.034420
-12.475278 49.511787 -20.990030 54.931476 -34.073434 -5.901517 0.750697 13.389386 2.638302 0.345540 7.663105 1.182234 0.457940 9.577625 1.488450 0.345541 7.663105 1.182234 0.046119 18.779356 0.015843 0.045072 -5.925318 0.006245 -4.715015 -2.199105 -7.650840 2.064240 -5.270827 72.846539 88.906875 -3.332906 30.502187 9.781568 -0.706205 -6.914785 -5.427926 -4.452497 4.486661 0.913894 -10.637718 -75.276478 -70.885428 -15.152772 -48.366118 -11.887019 -1.697188 14.880928 -1.694385 -49.524418 -8.449161 -156.720296 74.930512 -152.220644 -6.614759 -17.513043 4.347402 -0.204389 0.562694 -0.100943 7.625022 -54.526397 -0.882602 139.371499 69.456881 153.275752 1.016661 -17.234540 -3.906477 -0.059438 -0.580694 -0.035064
-12.480907 49.511780 -20.991484 54.904806 -34.092114 -5.871288 0.732902 13.406046 2.641751 0.334983 7.674923 1.183947 0.444793 9.592431 1.490395 0.334984 7.674924 1.183947 0.076384 18.771866 -0.011220 0.083161 -5.933632 -0.029195 -4.829428 -1.957063 -7.604387 2.106214 -4.676906 73.190083 87.961034 -2.770916 30.173477 9.620695 -0.829499 -7.058173 -5.284444 -4.275019 4.457957 0.631189 -9.900743 -75.171745 -70.816887 -14.427902 -47.703385 -11.796327 -1.219201 15.585862 -1.679288 -49.515857 -8.458833 -156.696355 74.934080 -152.207523 -6.607273 -17.507316 4.340034 -0.206983 0.562699 -0.101938 7.643977 -54.506622 -0.888954 139.374100 69.463962 153.271111 1.018560 -17.228157 -3.909801 -0.058767 -0.582695 -0.035294
-12.486718 49.511876 -20.992780 54.877133 -34.110409 -5.842892 0.720904 13.422380 2.647108 0.325769 7.686199 1.186390 0.433342 9.606553 1.493280 0.325770 7.686200 1.186389 0.102559 18.766653 -0.032305 0.115575 -5.939392 -0.057394 -4.933269 -1.719143 -7.550072 2.123783 -4.127443 73.525894 86.936846 -2.322252 29.833166 9.519051 -0.975603 -7.113705 -5.164349 -4.118083 4.430833 0.355940 -9.169629 -75.104351 -70.628736 -13.747113 -47.077229 -11.596063 -0.783894 16.311504 -1.664309 -49.507928 -8.466540 -156.679764 74.939241 -152.199902 -6.601725 -17.499035 4.331518 -0.208541 0.560974 -0.102450 7.666753 -54.488453 -0.895565 139.372466 69.468980 153.264172 1.020561 -17.221997 -3.910651 -0.060794 -0.585576 -0.036497
-12.492524 49.512248 -20.993752 54.848711 -34.129330 -5.816526 0.716457 13.440329 2.654431 0.319708 7.697276 1.190167 0.425868 9.620415 1.497903 0.319708 7.697277 1.190166 0.120508 18.761898 -0.047628 0.137996 -5.944644 -0.077642 -5.033214 -1.505164 -7.484661 2.124303 -3.597843 73.858179 85.872156 -1.885138 29.421446 9.545319 -1.117610 -7.065620 -5.070909 -3.963286 4.407511 0.136889 -8.492056 -75.072224 -70.315838 -13.095409 -46.523932 -11.283460 -0.435599 17.003724 -1.651079 -49.499320 -8.470465 -156.672498 74.945641 -152.201103 -6.599220 -17.489747 4.323089 -0.209225 0.557976 -0.102838 7.694396 -54.471521 -0.903603 139.370763 69.471730 153.259627 1.025310 -17.214166 -3.910025 -0.066642 -0.590905 -0.038233
